<svg id="visual" viewBox="0 0 900 450" width="900" height="450" xmlns="http://www.w3.org/2000/svg" xmlns:xlink="http://www.w3.org/1999/xlink" version="1.1"><path d="M0 51L64 51L64 42L129 42L129 15L193 15L193 46L257 46L257 51L321 51L321 51L386 51L386 42L450 42L450 33L514 33L514 24L579 24L579 0L643 0L643 15L707 15L707 0L771 0L771 0L836 0L836 24L900 24L900 6L900 0L900 0L836 0L836 0L771 0L771 0L707 0L707 0L643 0L643 0L579 0L579 0L514 0L514 0L450 0L450 0L386 0L386 0L321 0L321 0L257 0L257 0L193 0L193 0L129 0L129 0L64 0L64 0L0 0Z" fill="#5a9ca4"></path><path d="M0 64L64 64L64 42L129 42L129 42L193 42L193 51L257 51L257 87L321 87L321 82L386 82L386 64L450 64L450 33L514 33L514 24L579 24L579 0L643 0L643 42L707 42L707 19L771 19L771 42L836 42L836 55L900 55L900 37L900 4L900 22L836 22L836 0L771 0L771 0L707 0L707 13L643 13L643 0L579 0L579 22L514 22L514 31L450 31L450 40L386 40L386 49L321 49L321 49L257 49L257 44L193 44L193 13L129 13L129 40L64 40L64 49L0 49Z" fill="#4498ac"></path><path d="M0 78L64 78L64 87L129 87L129 42L193 42L193 100L257 100L257 123L321 123L321 91L386 91L386 109L450 109L450 69L514 69L514 33L579 33L579 55L643 55L643 42L707 42L707 24L771 24L771 64L836 64L836 69L900 69L900 51L900 35L900 53L836 53L836 40L771 40L771 17L707 17L707 40L643 40L643 0L579 0L579 22L514 22L514 31L450 31L450 62L386 62L386 80L321 80L321 85L257 85L257 49L193 49L193 40L129 40L129 40L64 40L64 62L0 62Z" fill="#2f94b5"></path><path d="M0 82L64 82L64 118L129 118L129 100L193 100L193 154L257 154L257 136L321 136L321 114L386 114L386 145L450 145L450 100L514 100L514 78L579 78L579 96L643 96L643 105L707 105L707 87L771 87L771 109L836 109L836 105L900 105L900 105L900 49L900 67L836 67L836 62L771 62L771 22L707 22L707 40L643 40L643 53L579 53L579 31L514 31L514 67L450 67L450 107L386 107L386 89L321 89L321 121L257 121L257 98L193 98L193 40L129 40L129 85L64 85L64 76L0 76Z" fill="#1f8ebe"></path><path d="M0 150L64 150L64 253L129 253L129 199L193 199L193 186L257 186L257 186L321 186L321 141L386 141L386 204L450 204L450 199L514 199L514 100L579 100L579 172L643 172L643 244L707 244L707 145L771 145L771 132L836 132L836 208L900 208L900 235L900 103L900 103L836 103L836 107L771 107L771 85L707 85L707 103L643 103L643 94L579 94L579 76L514 76L514 98L450 98L450 143L386 143L386 112L321 112L321 134L257 134L257 152L193 152L193 98L129 98L129 116L64 116L64 80L0 80Z" fill="#2587c5"></path><path d="M0 231L64 231L64 262L129 262L129 267L193 267L193 208L257 208L257 195L321 195L321 159L386 159L386 226L450 226L450 271L514 271L514 145L579 145L579 253L643 253L643 276L707 276L707 217L771 217L771 141L836 141L836 289L900 289L900 271L900 233L900 206L836 206L836 130L771 130L771 143L707 143L707 242L643 242L643 170L579 170L579 98L514 98L514 197L450 197L450 202L386 202L386 139L321 139L321 184L257 184L257 184L193 184L193 197L129 197L129 251L64 251L64 148L0 148Z" fill="#3d7ec9"></path><path d="M0 262L64 262L64 298L129 298L129 303L193 303L193 294L257 294L257 262L321 262L321 204L386 204L386 276L450 276L450 303L514 303L514 231L579 231L579 271L643 271L643 294L707 294L707 217L771 217L771 154L836 154L836 321L900 321L900 271L900 269L900 287L836 287L836 139L771 139L771 215L707 215L707 274L643 274L643 251L579 251L579 143L514 143L514 269L450 269L450 224L386 224L386 157L321 157L321 193L257 193L257 206L193 206L193 265L129 265L129 260L64 260L64 229L0 229Z" fill="#5974c9"></path><path d="M0 330L64 330L64 330L129 330L129 375L193 375L193 388L257 388L257 393L321 393L321 217L386 217L386 312L450 312L450 429L514 429L514 384L579 384L579 339L643 339L643 442L707 442L707 352L771 352L771 276L836 276L836 384L900 384L900 357L900 269L900 319L836 319L836 152L771 152L771 215L707 215L707 292L643 292L643 269L579 269L579 229L514 229L514 301L450 301L450 274L386 274L386 202L321 202L321 260L257 260L257 292L193 292L193 301L129 301L129 296L64 296L64 260L0 260Z" fill="#7567c4"></path><path d="M0 451L64 451L64 451L129 451L129 451L193 451L193 451L257 451L257 451L321 451L321 451L386 451L386 451L450 451L450 451L514 451L514 451L579 451L579 451L643 451L643 451L707 451L707 451L771 451L771 451L836 451L836 451L900 451L900 451L900 355L900 382L836 382L836 274L771 274L771 350L707 350L707 440L643 440L643 337L579 337L579 382L514 382L514 427L450 427L450 310L386 310L386 215L321 215L321 391L257 391L257 386L193 386L193 373L129 373L129 328L64 328L64 328L0 328Z" fill="#8f57b8"></path></svg>