<svg id="visual" viewBox="0 0 900 450" width="900" height="450" xmlns="http://www.w3.org/2000/svg" xmlns:xlink="http://www.w3.org/1999/xlink" version="1.1"><rect x="0" y="0" width="900" height="450" fill="#5A9CA4"></rect><path d="M0 239L21.5 239.2C43 239.3 86 239.7 128.8 234C171.7 228.3 214.3 216.7 257.2 212.2C300 207.7 343 210.3 385.8 214.8C428.7 219.3 471.3 225.7 514.2 220.7C557 215.7 600 199.3 642.8 200.5C685.7 201.7 728.3 220.3 771.2 218.3C814 216.3 857 193.7 878.5 182.3L900 171L900 0L878.5 0C857 0 814 0 771.2 0C728.3 0 685.7 0 642.8 0C600 0 557 0 514.2 0C471.3 0 428.7 0 385.8 0C343 0 300 0 257.2 0C214.3 0 171.7 0 128.8 0C86 0 43 0 21.5 0L0 0Z" fill="#b785da"></path><path d="M0 163L21.5 162.2C43 161.3 86 159.7 128.8 163.7C171.7 167.7 214.3 177.3 257.2 184.8C300 192.3 343 197.7 385.8 196.3C428.7 195 471.3 187 514.2 175.8C557 164.7 600 150.3 642.8 143C685.7 135.7 728.3 135.3 771.2 144.8C814 154.3 857 173.7 878.5 183.3L900 193L900 0L878.5 0C857 0 814 0 771.2 0C728.3 0 685.7 0 642.8 0C600 0 557 0 514.2 0C471.3 0 428.7 0 385.8 0C343 0 300 0 257.2 0C214.3 0 171.7 0 128.8 0C86 0 43 0 21.5 0L0 0Z" fill="#ad79d1"></path><path d="M0 141L21.5 141.2C43 141.3 86 141.7 128.8 133.8C171.7 126 214.3 110 257.2 103.5C300 97 343 100 385.8 105.8C428.7 111.7 471.3 120.3 514.2 118.7C557 117 600 105 642.8 109.3C685.7 113.7 728.3 134.3 771.2 136C814 137.7 857 120.3 878.5 111.7L900 103L900 0L878.5 0C857 0 814 0 771.2 0C728.3 0 685.7 0 642.8 0C600 0 557 0 514.2 0C471.3 0 428.7 0 385.8 0C343 0 300 0 257.2 0C214.3 0 171.7 0 128.8 0C86 0 43 0 21.5 0L0 0Z" fill="#a36ec9"></path><path d="M0 65L21.5 70C43 75 86 85 128.8 91.2C171.7 97.3 214.3 99.7 257.2 97.8C300 96 343 90 385.8 88.2C428.7 86.3 471.3 88.7 514.2 94.7C557 100.7 600 110.3 642.8 108.7C685.7 107 728.3 94 771.2 91.3C814 88.7 857 96.3 878.5 100.2L900 104L900 0L878.5 0C857 0 814 0 771.2 0C728.3 0 685.7 0 642.8 0C600 0 557 0 514.2 0C471.3 0 428.7 0 385.8 0C343 0 300 0 257.2 0C214.3 0 171.7 0 128.8 0C86 0 43 0 21.5 0L0 0Z" fill="#9962c0"></path><path d="M0 63L21.5 60.2C43 57.3 86 51.7 128.8 50.7C171.7 49.7 214.3 53.3 257.2 52C300 50.7 343 44.3 385.8 42C428.7 39.7 471.3 41.3 514.2 47.2C557 53 600 63 642.8 67.5C685.7 72 728.3 71 771.2 68C814 65 857 60 878.5 57.5L900 55L900 0L878.5 0C857 0 814 0 771.2 0C728.3 0 685.7 0 642.8 0C600 0 557 0 514.2 0C471.3 0 428.7 0 385.8 0C343 0 300 0 257.2 0C214.3 0 171.7 0 128.8 0C86 0 43 0 21.5 0L0 0Z" fill="#8f57b8"></path></svg>