<svg id="visual" viewBox="0 0 900 675" width="900" height="675" xmlns="http://www.w3.org/2000/svg" xmlns:xlink="http://www.w3.org/1999/xlink" version="1.1"><rect width="900" height="675" fill="#A8DADC"></rect><g><g transform="translate(334 279)"><path d="M0 -48.5L42 -24.3L42 24.3L0 48.5L-42 24.3L-42 -24.3Z" fill="#D4A5F5"></path></g><g transform="translate(41 500)"><path d="M0 -45L39 -22.5L39 22.5L0 45L-39 22.5L-39 -22.5Z" fill="#D4A5F5"></path></g><g transform="translate(404 387)"><path d="M0 -23L19.9 -11.5L19.9 11.5L0 23L-19.9 11.5L-19.9 -11.5Z" fill="#D4A5F5"></path></g><g transform="translate(722 419)"><path d="M0 -21L18.2 -10.5L18.2 10.5L0 21L-18.2 10.5L-18.2 -10.5Z" fill="#D4A5F5"></path></g><g transform="translate(381 625)"><path d="M0 -44L38.1 -22L38.1 22L0 44L-38.1 22L-38.1 -22Z" fill="#D4A5F5"></path></g><g transform="translate(195 143)"><path d="M0 -6L5.2 -3L5.2 3L0 6L-5.2 3L-5.2 -3Z" fill="#D4A5F5"></path></g><g transform="translate(431 132)"><path d="M0 -31L26.8 -15.5L26.8 15.5L0 31L-26.8 15.5L-26.8 -15.5Z" fill="#D4A5F5"></path></g><g transform="translate(777 655)"><path d="M0 -44L38.1 -22L38.1 22L0 44L-38.1 22L-38.1 -22Z" fill="#D4A5F5"></path></g><g transform="translate(222 582)"><path d="M0 -30L26 -15L26 15L0 30L-26 15L-26 -15Z" fill="#D4A5F5"></path></g><g transform="translate(92 340)"><path d="M0 -19L16.5 -9.5L16.5 9.5L0 19L-16.5 9.5L-16.5 -9.5Z" fill="#D4A5F5"></path></g><g transform="translate(163 463)"><path d="M0 -9L7.8 -4.5L7.8 4.5L0 9L-7.8 4.5L-7.8 -4.5Z" fill="#D4A5F5"></path></g><g transform="translate(204 268)"><path d="M0 -20L17.3 -10L17.3 10L0 20L-17.3 10L-17.3 -10Z" fill="#D4A5F5"></path></g><g transform="translate(190 11)"><path d="M0 -11L9.5 -5.5L9.5 5.5L0 11L-9.5 5.5L-9.5 -5.5Z" fill="#D4A5F5"></path></g><g transform="translate(529 581)"><path d="M0 -21L18.2 -10.5L18.2 10.5L0 21L-18.2 10.5L-18.2 -10.5Z" fill="#D4A5F5"></path></g><g transform="translate(836 347)"><path d="M0 -38L32.9 -19L32.9 19L0 38L-32.9 19L-32.9 -19Z" fill="#D4A5F5"></path></g><g transform="translate(898 94)"><path d="M0 -34L29.4 -17L29.4 17L0 34L-29.4 17L-29.4 -17Z" fill="#D4A5F5"></path></g><g transform="translate(328 161)"><path d="M0 -30L26 -15L26 15L0 30L-26 15L-26 -15Z" fill="#D4A5F5"></path></g><g transform="translate(862 600)"><path d="M0 -27L23.4 -13.5L23.4 13.5L0 27L-23.4 13.5L-23.4 -13.5Z" fill="#D4A5F5"></path></g><g transform="translate(878 227)"><path d="M0 -22L19.1 -11L19.1 11L0 22L-19.1 11L-19.1 -11Z" fill="#D4A5F5"></path></g><g transform="translate(558 169)"><path d="M0 -26L22.5 -13L22.5 13L0 26L-22.5 13L-22.5 -13Z" fill="#D4A5F5"></path></g><g transform="translate(668 233)"><path d="M0 -24L20.8 -12L20.8 12L0 24L-20.8 12L-20.8 -12Z" fill="#D4A5F5"></path></g><g transform="translate(380 49)"><path d="M0 -34L29.4 -17L29.4 17L0 34L-29.4 17L-29.4 -17Z" fill="#D4A5F5"></path></g><g transform="translate(346 520)"><path d="M0 -22L19.1 -11L19.1 11L0 22L-19.1 11L-19.1 -11Z" fill="#D4A5F5"></path></g><g transform="translate(232 382)"><path d="M0 -8L6.9 -4L6.9 4L0 8L-6.9 4L-6.9 -4Z" fill="#D4A5F5"></path></g><g transform="translate(860 469)"><path d="M0 -31L26.8 -15.5L26.8 15.5L0 31L-26.8 15.5L-26.8 -15.5Z" fill="#D4A5F5"></path></g><g transform="translate(592 457)"><path d="M0 -18L15.6 -9L15.6 9L0 18L-15.6 9L-15.6 -9Z" fill="#D4A5F5"></path></g><g transform="translate(759 178)"><path d="M0 -42L36.4 -21L36.4 21L0 42L-36.4 21L-36.4 -21Z" fill="#D4A5F5"></path></g><g transform="translate(22 233)"><path d="M0 -44L38.1 -22L38.1 22L0 44L-38.1 22L-38.1 -22Z" fill="#D4A5F5"></path></g><g transform="translate(491 242)"><path d="M0 -28L24.2 -14L24.2 14L0 28L-24.2 14L-24.2 -14Z" fill="#D4A5F5"></path></g><g transform="translate(497 430)"><path d="M0 -42L36.4 -21L36.4 21L0 42L-36.4 21L-36.4 -21Z" fill="#D4A5F5"></path></g><g transform="translate(143 667)"><path d="M0 -31L26.8 -15.5L26.8 15.5L0 31L-26.8 15.5L-26.8 -15.5Z" fill="#D4A5F5"></path></g><g transform="translate(654 566)"><path d="M0 -40L34.6 -20L34.6 20L0 40L-34.6 20L-34.6 -20Z" fill="#D4A5F5"></path></g><g transform="translate(541 24)"><path d="M0 -47L40.7 -23.5L40.7 23.5L0 47L-40.7 23.5L-40.7 -23.5Z" fill="#D4A5F5"></path></g><g transform="translate(13 5)"><path d="M0 -19L16.5 -9.5L16.5 9.5L0 19L-16.5 9.5L-16.5 -9.5Z" fill="#D4A5F5"></path></g><g transform="translate(741 18)"><path d="M0 -14L12.1 -7L12.1 7L0 14L-12.1 7L-12.1 -7Z" fill="#D4A5F5"></path></g><g transform="translate(20 630)"><path d="M0 -6L5.2 -3L5.2 3L0 6L-5.2 3L-5.2 -3Z" fill="#D4A5F5"></path></g><g transform="translate(613 350)"><path d="M0 -29L25.1 -14.5L25.1 14.5L0 29L-25.1 14.5L-25.1 -14.5Z" fill="#D4A5F5"></path></g></g></svg>